#tb 0: 1/25
#media_type 0: video
#codec_id 0: rawvideo
#dimensions 0: 1920x1080
#sar 0: 1/1
#tb 1: 1/48000
#media_type 1: audio
#codec_id 1: pcm_s16le
#sample_rate 1: 48000
#channel_layout_name 1: mono
0,          0,          0,        1,  8294400, 0x9a02ecf2
1,          0,          0,     1920,     3840, 0x38074ac8
0,          1,          1,        1,  8294400, 0x626f870a
1,       1920,       1920,     1920,     3840, 0xd154829c
0,          2,          2,        1,  8294400, 0x2d60557c
1,       3840,       3840,     1920,     3840, 0x52515421
0,          3,          3,        1,  8294400, 0x9c582956
1,       5760,       5760,     1920,     3840, 0xdb8869d8
0,          4,          4,        1,  8294400, 0x1c071f9a
1,       7680,       7680,     1920,     3840, 0x5b2f7758
0,          5,          5,        1,  8294400, 0x727f33cc
1,       9600,       9600,     1920,     3840, 0xd099976a
